The Time Machine (2002) 1080p      


Een film gebaseerd op de roman "The Time Machine" van H.G. Wells. De film werd geregisseerd door Wells' achterkleinkind Simon Wells, en Alan Young, die in de eerste verfilming uit 1960 meespeelde, heeft een cameo in deze film. 

Visueel ziet het er allemaal strak uit en de speciale effecten zijn een lust voor het oog. De kostuums zijn prachtig, de sets fantasievol en zijn met veel oog voor detail gemaakt Broer en zus Mumba zijn adequaat, Orlando Jones speelt een vermakelijk hologram en Mark Addy heeft een kleine rol als bezorgde vriend van Hartdegen. Als je van een goeie avonturenfilm houdt, dan kun je je met 'The Time Machine' anderhalf uur prima amuseren. 

De wetenschapper Alexander Hartdegen is vastberaden om te bewijzen dat tijdreizen mogelijk is. Een persoonlijk drama zorgt ervoor dat hij het verleden wil veranderen. Wanneer hij zijn theorie uittest met een eigengemaakte machine komt hij 800.000 jaar in de toekomst terecht. Hier ontdekt hij dat de mensheid in twee groepen is opgedeeld: jagers en opgejaagden.
 
http://www.moviemeter.nl/film/1770

English

Hoping to alter the events of the past, a 19th century inventor instead travels 800,000 years into the future, where he finds humankind divided into two warring races
 
http://www.imdb.com/title/tt0268695/


Verenigde Staten
Science-Fiction / Avontuur
96 minuten

geregisseerd door Simon Wells
met Guy Pearce, Jeremy Irons en Samantha Mumba

Bron: Retail 
Taal: Engels
Video: x264, 1920x800, 
Audio: DTS 
Ondertitels: Nederlands, 



Met dank en alle eer voor de originele poster 
Spotinformatie 
Categorie : Beeld 
Formaat : x264HD 
Bron : Retail

Format                           : Matroska
File size                        : 7.94 GiB
Duration                         : 1h 36mn
Overall bit rate                 : 11.8 Mbps
Movie name                       : -=HANSMER=- (HQ-Films.ws)
Encoded date                     : UTC 2010-02-24 08:07:05
Writing application              : mkvmerge v3.1.0 ('Happy up here') built on Jan 19 2010 12:09:24
Writing library                  : libebml v0.7.9 + libmatroska v0.8.1

Video
ID                               : 1
Format                           : AVC
Format/Info                      : Advanced Video Codec
Format profile                   : High@L5.1
Format settings, CABAC           : Yes
Format settings, ReFrames        : 5 frames
Format settings, GOP             : N=1
Muxing mode                      : Container profile=Unknown@5.1
Codec ID                         : V_MPEG4/ISO/AVC
Duration                         : 1h 36mn
Bit rate                         : 11.1 Mbps
Width                            : 1 920 pixels
Height                           : 800 pixels
Display aspect ratio             : 2.40:1
Frame rate                       : 23.976 fps
Color space                      : YUV
Chroma subsampling               : 4:2:0
Bit depth                        : 8 bits
Scan type                        : Progressive
Bits/(Pixel*Frame)               : 0.301
Stream size                      : 7.27 GiB (92%)
Title                            : The.Time.Machine.2002.1080p.DTheater.DTS.x264-CtrlHD
Writing library                  : x264 core 60 r883M cfaac5c
Encoding settings                : cabac=1 / ref=5 / deblock=1:-3:-3 / analyse=0x3:0x133 / me=umh / subme=7 / brdo=1 / mixed_ref=1 / me_range=16 / chroma_me=1 / trellis=0 / 8x8dct=1 / cqm=2 / deadzone=6,4 / chroma_qp_offset=0 / threads=6 / nr=0 / decimate=1 / mbaff=0 / fgo=10 / bframes=3 / b_pyramid=1 / b_adapt=1 / b_bias=0 / direct=3 / wpredb=1 / bime=1 / keyint=250 / keyint_min=25 / scenecut=40(pre) / rc=2pass / bitrate=11070 / ratetol=1.0 / rceq='blurCplx^(1-qComp)' / qcomp=1.00 / qpmin=10 / qpmax=51 / qpstep=4 / cplxblur=20.0 / qblur=0.5 / ip_ratio=1.40 / pb_ratio=1.15 / aq=2:0.60
Language                         : English

Audio
ID                               : 2
Format                           : DTS
Format/Info                      : Digital Theater Systems
Codec ID                         : A_DTS
Duration                         : 1h 36mn
Bit rate mode                    : Constant
Bit rate                         : 755 Kbps
Channel(s)                       : 6 channels
Channel positions                : Front: L C R, Side: L R, LFE
Sampling rate                    : 48.0 KHz
Bit depth                        : 16 bits
Stream size                      : 519 MiB (6%)
Language                         : English

Text
ID                               : 3
Format                           : UTF-8
Codec ID                         : S_TEXT/UTF8
Codec ID/Info                    : UTF-8 Plain Text


 
Ondertitels : Nederlands (instelbaar)

 
Genre : Avontuur
Science Fiction
 
Weblink :
Thanks : BOB1961
 

Weblink ;  http://www.moviemeter.nl/film/1770
Weblink :  http://www.imdb.com/title/tt0268695/

TBS

Black-Sam
